<svg width="23" height="40" viewBox="0 0 23 40" fill="none" xmlns="http://www.w3.org/2000/svg">
<path d="M0.895844 38.9585C0.37501 38.4377 0.114594 37.821 0.114594 37.1085C0.114594 36.3974 0.37501 35.7814 0.895844 35.2606L16.1563 20.0002L0.84376 4.68766C0.357649 4.20155 0.114594 3.59391 0.114594 2.86475C0.114594 2.13558 0.37501 1.51058 0.895844 0.989746C1.41668 0.468913 2.03334 0.208496 2.74584 0.208496C3.45695 0.208496 4.07293 0.468913 4.59376 0.989746L22.0938 18.5418C22.3021 18.7502 22.45 18.9759 22.5375 19.2189C22.6236 19.462 22.6667 19.7224 22.6667 20.0002C22.6667 20.2779 22.6236 20.5384 22.5375 20.7814C22.45 21.0245 22.3021 21.2502 22.0938 21.4585L4.54168 39.0106C4.05557 39.4967 3.45695 39.7397 2.74584 39.7397C2.03334 39.7397 1.41668 39.4793 0.895844 38.9585Z" fill="#F8F8F8" fill-opacity="0.5"/>
</svg>
