<svg width="62" height="38" viewBox="0 0 62 38" fill="none" xmlns="http://www.w3.org/2000/svg">
<path d="M1.83333 15.9998C1.83333 19.8676 3.36979 23.5769 6.10469 26.3118C8.8396 29.0467 12.5489 30.5832 16.4167 30.5832C21.8058 30.7839 26.9591 32.8452 31 36.4165C35.0409 32.8452 40.1942 30.7839 45.5833 30.5832C49.4511 30.5832 53.1604 29.0467 55.8953 26.3118C58.6302 23.5769 60.1667 19.8676 60.1667 15.9998V1.4165H45.5833C40.1942 1.61724 35.0409 3.67854 31 7.24984C26.9591 3.67854 21.8058 1.61724 16.4167 1.4165H1.83333V15.9998Z" stroke="#F8F8F8" stroke-opacity="0.3" stroke-width="2" stroke-linecap="round" stroke-linejoin="round"/>
<path d="M13.5 13.0832C17.875 13.0832 22.25 14.5415 22.25 18.9165C16.4167 18.9165 13.5 18.9165 13.5 13.0832ZM48.5 13.0832C44.125 13.0832 39.75 14.5415 39.75 18.9165C45.5833 18.9165 48.5 18.9165 48.5 13.0832Z" stroke="#F8F8F8" stroke-opacity="0.3" stroke-width="2" stroke-linecap="round" stroke-linejoin="round"/>
</svg>
